<svg width="630" height="646" viewBox="0 0 630 646" fill="none" xmlns="http://www.w3.org/2000/svg">
<path d="M479.847 101.163C532.67 143.447 587.13 178.222 612.518 228.408C637.906 278.595 634.63 343.403 609.242 396.356C583.445 449.309 535.945 489.616 484.76 535.061C433.985 580.505 379.115 630.692 315.645 642.942C251.767 655.193 178.47 629.507 120.324 586.038C62.1776 542.964 18.3633 482.503 4.85049 418.485C-8.66234 354.468 7.71684 286.498 33.5141 225.247C59.7207 163.996 95.3455 109.462 145.302 66.7837C195.258 23.7101 259.956 -7.5084 318.102 1.58052C375.839 10.2743 427.024 59.2754 479.847 101.163Z" fill="#2A5F74" fill-opacity="0.83"/>
</svg>
