<svg width="630" height="646" viewBox="0 0 630 646" fill="none" xmlns="http://www.w3.org/2000/svg">
  <path
    d="M479.847 544.837C532.67 502.553 587.13 467.778 612.518 417.592C637.906 367.405 634.63 302.597 609.242 249.644C583.445 196.691 535.945 156.384 484.76 110.939C433.985 65.495 379.115 15.308 315.645 3.058C251.767 -9.193 178.47 16.493 120.324 59.962C62.1776 103.036 18.3633 163.497 4.85049 227.515C-8.66234 291.532 7.71684 359.502 33.5141 420.753C59.7207 482.004 95.3455 536.538 145.302 579.216C195.258 622.29 259.956 653.508 318.102 644.419C375.839 635.726 427.024 586.725 479.847 544.837Z"
    fill="#2A5F74" fill-opacity="0.83" />
</svg> 